<?xml version="1.0" encoding="UTF-8"?><svg xmlns="http://www.w3.org/2000/svg" viewBox="0 0 529.82 497.6"><defs><style>.h{fill:#fff;}.i{letter-spacing:.28em;}.j{fill:#42211f;}.k{letter-spacing:.3em;}.l{letter-spacing:.3em;}.m{letter-spacing:.28em;}.n{letter-spacing:.3em;}.o{letter-spacing:.29em;}.p{letter-spacing:.29em;}.q{fill:#603813;}.r{fill:#9c9544;}.s{letter-spacing:.29em;}.t{fill:#e6e6e6;}.u{letter-spacing:.17em;}.v{font-family:Sculpin-BoldItalic, Sculpin;font-size:60px;}.w{fill:none;stroke:#b87333;stroke-linejoin:round;stroke-width:8px;}.x{letter-spacing:.3em;}.y{letter-spacing:.29em;}.a`{fill:#4c889c;}.aa{letter-spacing:.3em;}.ab{letter-spacing:.28em;}.ac{letter-spacing:.29em;}.ad{letter-spacing:.29em;}</style></defs><g id="a"/><g id="b"><g id="c"><path class="r" d="M438.49,312.09c-20.67,6.18-27.28,11.99-50.22,23.02-27.24,13.1-50.82,24.44-75.32,27.2-28.11,3.17-37.58-7.2-91.02-24.06-27.9-8.81-69.39-21.9-108.8-24.06-20.41-1.12-49.5,.2-85.37,11.84,32.34,97.35,124.14,167.57,232.36,167.57,114.64,0,210.85-78.8,237.47-185.19-.52-.17-1.03-.35-1.57-.51-21.34-6.39-40.05-1.05-57.54,4.18Z"/><path class="a`" d="M260.12,4C124.92,4,15.32,113.6,15.32,248.8c0,26.99,4.38,52.95,12.44,77.23,35.87-11.64,64.96-12.96,85.37-11.84,39.41,2.16,80.9,15.26,108.8,24.06,53.43,16.87,62.91,27.23,91.02,24.06,24.5-2.76,48.08-14.1,75.32-27.2,22.93-11.03,29.55-16.83,50.22-23.02,17.49-5.23,36.2-10.57,57.54-4.18,.53,.16,1.05,.34,1.57,.51,4.78-19.08,7.33-39.05,7.33-59.61C504.92,113.6,395.32,4,260.12,4Z"/></g><g id="d"><g><path class="t" d="M141.71,414.62c-.65,0-1.25-.26-1.69-.73s-.67-1.08-.63-1.73l.88-15.85,1.35-361.21,16.04-8h1.55V403.57c0,1.62,.18,3.24,.53,4.82l.85,3.83c.13,.59-.01,1.2-.39,1.67-.38,.47-.94,.74-1.54,.74h-16.94Z"/><path class="q" d="M158.71,27.61V403.57c0,1.66,.18,3.32,.54,4.93l.85,3.83c.1,.44,0,.89-.29,1.25-.28,.35-.7,.55-1.15,.55h-16.94c-.51,0-.98-.2-1.32-.57-.35-.37-.52-.85-.5-1.35l.88-15.85v-.05l1.35-360.88,15.65-7.81h.93m1-1h-2.17l-16.42,8.19-1.35,361.49-.88,15.85c-.09,1.62,1.2,2.98,2.82,2.98h16.94c1.58,0,2.76-1.47,2.42-3.01l-.85-3.83c-.34-1.55-.52-3.13-.52-4.72V26.61h0Z"/></g><g><path class="t" d="M281.13,432.23c-.77,0-1.59-.06-2.31-.12l-.5-.04-34.88-3.83c-.91-.07-1.45-.24-1.66-.54-.33-.47-.04-1.55,.34-2.92l.39-1.46c.42-1.58,1.38-10.84,1.38-12.37l-1.71-405.79,17.97-.86,18.31,.89,.98,408.76c0,2.38,.24,4.76,.73,7.09l3.55,9.96c.08,.4-.08,.59-.13,.66-.21,.26-.81,.57-2.45,.57Z"/><path class="q" d="M260.12,4.8l17.84,.87,.98,408.28c0,2.41,.25,4.83,.74,7.19v.07l.04,.07,3.5,9.82c.01,.08,.02,.2-.02,.25-.05,.06-.4,.39-2.06,.39-.75,0-1.56-.06-2.27-.12l-.46-.03-34.94-3.83c-1.07-.08-1.25-.3-1.27-.33-.19-.27,.14-1.51,.41-2.5l.08-.3,.31-1.16c.45-1.66,1.39-10.91,1.39-12.5l-1.71-405.31,17.45-.84m0-1l-18.45,.89,1.71,406.27c0,1.56-.95,10.73-1.36,12.24l-.31,1.16c-.76,2.82-1.24,4.17,1.67,4.39l34.9,3.83c.85,.06,1.88,.16,2.85,.16,1.8,0,3.37-.34,3.05-1.9l-3.53-9.89c-.48-2.3-.72-4.64-.72-6.99l-.98-409.23-18.84-.91h0Z"/></g><g><path class="t" d="M419.9,401.12c-.26-.52-.04-2.56,.63-6.06l.14-.75v-5.32l-.35-324.59,9.49,8.67,2.42,310.69c0,.31,.07,2.18,.19,5.54,.06,1.46-.61,2.85-1.77,3.73l-10.75,8.1Z"/><path class="q" d="M420.83,65.53l8.49,7.76,2.42,310.46c0,.33,.07,2.2,.19,5.56,.05,1.29-.54,2.53-1.57,3.31l-10.06,7.57c.02-1.39,.53-4.04,.72-5.04,.06-.29,.11-.55,.14-.76l.02-.09v-5.32l-.36-323.45m-1-2.27l.36,325.72v5.23c-.34,1.86-1.57,7.43-.34,7.43,.1,0,.21-.04,.34-.11l10.78-8.11c1.3-.98,2.03-2.53,1.97-4.15-.09-2.22-.19-5.13-.19-5.52l-2.42-310.91-10.49-9.58h0Z"/></g><g><path class="t" d="M313.98,380.55c-1.8-.1-5.01-.53-5.57-.67l-10.12-2.53c-.25-.06-.46-.22-.59-.44-.13-.22-.17-.48-.11-.73l1.51-5.9V7.6l8.35,1.48,1.29,352.09c0,1.66,.2,3.33,.58,4.96l4.66,14.42Z"/><path class="q" d="M299.59,8.2l7.35,1.3,1.29,351.67c0,1.7,.21,3.41,.6,5.07v.04l.02,.04,4.42,13.68c-1.79-.15-4.27-.49-4.74-.61l-10.13-2.53c-.16-.04-.25-.15-.28-.21-.04-.06-.09-.19-.05-.35l1.49-5.84,.03-.12V8.2m-1-1.19V370.22l-1.49,5.84c-.2,.78,.28,1.58,1.06,1.78l10.13,2.53c.68,.17,4.76,.71,6.33,.71,.74,0,.92-.12-.09-.46l-4.72-14.6c-.37-1.59-.56-3.21-.57-4.84l-1.29-352.5-9.34-1.66h0Z"/></g><g><path class="t" d="M109.05,432.48c-.16,0-.34-.02-.54-.05l-10.74-1.09-7.31-7.11c-10.12-9.84-19.54-20.55-28.01-31.85V105.24l20.06-24.12,20.92-19.67,.31,348.31c0,3.63,.71,7.18,2.11,10.53l3.16,7.59c1.36,2.97,1.08,3.96,.89,4.26-.05,.08-.22,.34-.85,.34Z"/><path class="q" d="M102.93,62.61l.31,347.16c0,3.7,.73,7.31,2.15,10.72l3.18,7.62c1.37,2.99,.94,3.73,.92,3.76-.06,.1-.35,.11-.43,.11-.13,0-.29-.01-.46-.04h-.06l-10.54-1.08-7.19-6.99c-10.06-9.78-19.43-20.43-27.85-31.65V105.42l19.9-23.93,20.08-18.88m1-2.31l-21.81,20.5-20.17,24.25V392.55h0c8.54,11.4,17.95,22.11,28.16,32.04l7.44,7.23,10.89,1.11c.23,.04,.44,.06,.62,.06,2.29,0,1.6-2.72,.42-5.29l-3.16-7.59c-1.36-3.28-2.07-6.79-2.07-10.34l-.31-349.46h0Z"/></g><ellipse class="j" cx="102.75" cy="218.49" rx="3.5" ry="30.31"/><ellipse class="j" cx="61.95" cy="155.54" rx="3.5" ry="10.49"/><ellipse class="j" cx="102.75" cy="373.53" rx="3.5" ry="8.16"/><ellipse class="j" cx="96.92" cy="111.25" rx="9.33" ry="3.5"/><ellipse class="j" cx="70.11" cy="298.93" rx="10.49" ry="5.83"/><ellipse class="j" cx="157.54" cy="138.64" rx="3.5" ry="6.41"/><ellipse class="j" cx="141.8" cy="194.01" rx="4.08" ry="2.33"/><ellipse class="j" cx="158.79" cy="363.62" rx="4.08" ry="9.91"/><ellipse class="j" cx="142.05" cy="75.58" rx="3.5" ry="9.91"/><ellipse class="j" cx="270.03" cy="128.15" rx="9.91" ry="4.08"/><path class="j" d="M240.31,71.03c0,9.34,1.3,16.9,2.91,16.9s2.91-6.98,2.91-16.32-1.3-17.49-2.91-17.49-2.91,7.57-2.91,16.9Z"/><path class="j" d="M261.29,175.36c0,2.25-7.41,3.5-12.24,3.5s-8.74-1.83-8.74-4.08,3.91-4.08,8.74-4.08,12.24,2.41,12.24,4.66Z"/><path class="j" d="M265.95,345.55c0,1.61,7.79,2.33,11.66,2.33s6.99-1.3,6.99-2.91-3.13-2.91-6.99-2.91-11.66,1.89-11.66,3.5Z"/><ellipse class="j" cx="243.22" cy="395.1" rx="2.91" ry="8.74"/><ellipse class="j" cx="307.92" cy="86.77" rx="2.33" ry="12.82"/><path class="j" d="M300.92,153.21c0,4.18-.78,6.99-1.75,6.99s-1.75-3.39-1.75-7.58,.78-7.58,1.75-7.58,1.75,3.98,1.75,8.16Z"/><path class="j" d="M303.25,331.57c0,1.29,3.38,2.33,4.66,2.33s2.33-1.04,2.33-2.33-1.04-2.33-2.33-2.33-4.66,1.04-4.66,2.33Z"/><ellipse class="j" cx="419.83" cy="94.93" rx="2.33" ry="8.16"/><ellipse class="j" cx="431.36" cy="304.75" rx="2.33" ry="8.16"/><path class="j" d="M426.82,345.55c0,1.61-3.9,2.33-5.83,2.33s-3.5-1.3-3.5-2.91,2.73-1.75,4.66-1.75,4.66,.72,4.66,2.33Z"/><g/></g><g id="e"><circle class="w" cx="260.12" cy="248.8" r="244.8"/></g><g id="f"><g><polygon class="h" points="9.72 225.58 510.52 137.02 510.52 272.02 9.72 360.58 9.72 225.58"/><path d="M508.52,139.41v130.93L11.72,358.19V227.26l496.8-87.85m4-4.77l-4.7,.83L11.03,223.32l-3.3,.58v139.06l4.7-.83,496.8-87.85,3.3-.58V134.64h0Z"/></g></g><g id="g"><text class="v" transform="translate(33.91 274.37) rotate(-10)"><tspan class="l" x="0" y="0">S</tspan><tspan class="ad" x="61.73" y="0">k</tspan><tspan class="s" x="115" y="0">i</tspan><tspan class="aa" x="149.04" y="0">l</tspan><tspan class="y" x="183.22" y="0">l</tspan><tspan class="ac" x="217.2" y="0">s</tspan><tspan class="x" x="268.49" y="0">U</tspan><tspan class="i" x="333.83" y="0">S</tspan><tspan class="n" x="394.14" y="0">A</tspan><tspan class="m" x="-25.44" y="72">U</tspan><tspan class="u" x="38.95" y="72">T</tspan><tspan class="ab" x="92.11" y="72">A</tspan><tspan class="n" x="159.9" y="72">H </tspan><tspan class="o" x="257.57" y="72">2</tspan><tspan class="p" x="313.7" y="72">0</tspan><tspan class="k" x="375.08" y="72">2</tspan><tspan class="n" x="431.58" y="72">2</tspan></text></g></g></svg>